<mxfile host="app.diagrams.net" agent="Mozilla/5.0 (Windows NT 10.0; Win64; x64) AppleWebKit/537.36 (KHTML, like Gecko) Chrome/131.0.0.0 Safari/537.36" version="24.8.6">
  <diagram name="Страница — 1" id="PvSclXLGzo3LcH9hCQnH">
    <mxGraphModel dx="926" dy="533" grid="1" gridSize="10" guides="1" tooltips="1" connect="1" arrows="1" fold="1" page="1" pageScale="1" pageWidth="827" pageHeight="1169" math="0" shadow="0">
      <root>
        <mxCell id="0" />
        <mxCell id="1" parent="0" />
        <mxCell id="hakoycOsbLdt7JPOmpAk-1" style="edgeStyle=orthogonalEdgeStyle;rounded=0;orthogonalLoop=1;jettySize=auto;html=1;exitX=1;exitY=0.5;exitDx=0;exitDy=0;entryX=0;entryY=0.5;entryDx=0;entryDy=0;" edge="1" parent="1" source="hakoycOsbLdt7JPOmpAk-5" target="hakoycOsbLdt7JPOmpAk-8">
          <mxGeometry relative="1" as="geometry" />
        </mxCell>
        <mxCell id="hakoycOsbLdt7JPOmpAk-2" value="Создает" style="edgeLabel;html=1;align=center;verticalAlign=middle;resizable=0;points=[];" vertex="1" connectable="0" parent="hakoycOsbLdt7JPOmpAk-1">
          <mxGeometry x="0.0125" relative="1" as="geometry">
            <mxPoint y="-21" as="offset" />
          </mxGeometry>
        </mxCell>
        <mxCell id="hakoycOsbLdt7JPOmpAk-3" style="edgeStyle=orthogonalEdgeStyle;rounded=0;orthogonalLoop=1;jettySize=auto;html=1;exitX=1;exitY=0.75;exitDx=0;exitDy=0;entryX=0;entryY=0.75;entryDx=0;entryDy=0;" edge="1" parent="1" source="hakoycOsbLdt7JPOmpAk-5" target="hakoycOsbLdt7JPOmpAk-12">
          <mxGeometry relative="1" as="geometry">
            <Array as="points">
              <mxPoint x="460" y="195" />
              <mxPoint x="460" y="300" />
              <mxPoint x="980" y="300" />
              <mxPoint x="980" y="274" />
            </Array>
          </mxGeometry>
        </mxCell>
        <mxCell id="hakoycOsbLdt7JPOmpAk-4" value="Участвует" style="edgeLabel;html=1;align=center;verticalAlign=middle;resizable=0;points=[];" vertex="1" connectable="0" parent="hakoycOsbLdt7JPOmpAk-3">
          <mxGeometry x="-0.7752" y="-2" relative="1" as="geometry">
            <mxPoint x="-8" y="-4" as="offset" />
          </mxGeometry>
        </mxCell>
        <mxCell id="hakoycOsbLdt7JPOmpAk-5" value="Пользователь" style="rounded=1;whiteSpace=wrap;html=1;" vertex="1" parent="1">
          <mxGeometry x="312" y="150" width="120" height="60" as="geometry" />
        </mxCell>
        <mxCell id="hakoycOsbLdt7JPOmpAk-6" style="edgeStyle=orthogonalEdgeStyle;rounded=0;orthogonalLoop=1;jettySize=auto;html=1;exitX=1;exitY=0.5;exitDx=0;exitDy=0;entryX=0;entryY=0.5;entryDx=0;entryDy=0;endArrow=none;endFill=0;startArrow=classic;startFill=1;" edge="1" parent="1" source="hakoycOsbLdt7JPOmpAk-8" target="hakoycOsbLdt7JPOmpAk-11">
          <mxGeometry relative="1" as="geometry" />
        </mxCell>
        <mxCell id="hakoycOsbLdt7JPOmpAk-7" value="Включается в список" style="edgeLabel;html=1;align=center;verticalAlign=middle;resizable=0;points=[];" vertex="1" connectable="0" parent="hakoycOsbLdt7JPOmpAk-6">
          <mxGeometry x="-0.0375" y="1" relative="1" as="geometry">
            <mxPoint y="-5" as="offset" />
          </mxGeometry>
        </mxCell>
        <mxCell id="hakoycOsbLdt7JPOmpAk-8" value="Список" style="rounded=1;whiteSpace=wrap;html=1;" vertex="1" parent="1">
          <mxGeometry x="552" y="229" width="120" height="60" as="geometry" />
        </mxCell>
        <mxCell id="hakoycOsbLdt7JPOmpAk-9" style="edgeStyle=orthogonalEdgeStyle;rounded=0;orthogonalLoop=1;jettySize=auto;html=1;exitX=1;exitY=0.5;exitDx=0;exitDy=0;entryX=0;entryY=0.199;entryDx=0;entryDy=0;entryPerimeter=0;" edge="1" parent="1" source="hakoycOsbLdt7JPOmpAk-11" target="hakoycOsbLdt7JPOmpAk-12">
          <mxGeometry relative="1" as="geometry">
            <Array as="points">
              <mxPoint x="977" y="180" />
              <mxPoint x="977" y="240" />
              <mxPoint x="1032" y="240" />
            </Array>
          </mxGeometry>
        </mxCell>
        <mxCell id="hakoycOsbLdt7JPOmpAk-10" value="Покупаются / продаются" style="edgeLabel;html=1;align=center;verticalAlign=middle;resizable=0;points=[];" vertex="1" connectable="0" parent="hakoycOsbLdt7JPOmpAk-9">
          <mxGeometry x="-0.05" y="-3" relative="1" as="geometry">
            <mxPoint x="2" y="12" as="offset" />
          </mxGeometry>
        </mxCell>
        <mxCell id="hakoycOsbLdt7JPOmpAk-11" value="Акция" style="rounded=1;whiteSpace=wrap;html=1;" vertex="1" parent="1">
          <mxGeometry x="802" y="150" width="120" height="60" as="geometry" />
        </mxCell>
        <mxCell id="hakoycOsbLdt7JPOmpAk-12" value="Сделка" style="rounded=1;whiteSpace=wrap;html=1;" vertex="1" parent="1">
          <mxGeometry x="1032" y="229" width="120" height="60" as="geometry" />
        </mxCell>
        <mxCell id="hakoycOsbLdt7JPOmpAk-13" value="user_id" style="text;html=1;align=left;verticalAlign=middle;resizable=0;points=[];autosize=1;strokeColor=none;fillColor=none;" vertex="1" parent="1">
          <mxGeometry x="342" y="210" width="60" height="30" as="geometry" />
        </mxCell>
        <mxCell id="hakoycOsbLdt7JPOmpAk-14" value="list_id&lt;div&gt;list_name&lt;/div&gt;&lt;div&gt;list_item&lt;/div&gt;&lt;div&gt;user_id&lt;/div&gt;&lt;div&gt;creation_date&lt;span style=&quot;background-color: initial;&quot;&gt;&lt;font style=&quot;font-size: 12px;&quot;&gt;_time&lt;/font&gt;&lt;/span&gt;&lt;/div&gt;&lt;div&gt;economy_sector&lt;/div&gt;&lt;div&gt;daily_turnover_from&lt;/div&gt;&lt;div&gt;&lt;/div&gt;daily_turnover_to" style="text;html=1;align=left;verticalAlign=middle;resizable=0;points=[];autosize=1;strokeColor=none;fillColor=none;" vertex="1" parent="1">
          <mxGeometry x="577" y="300" width="130" height="130" as="geometry" />
        </mxCell>
        <mxCell id="hakoycOsbLdt7JPOmpAk-15" value="transaction_id&lt;div&gt;date_time&lt;div&gt;seller_id&lt;div&gt;buyer&lt;span style=&quot;background-color: initial;&quot;&gt;_id&lt;/span&gt;&lt;/div&gt;&lt;div&gt;share_id&lt;/div&gt;&lt;div&gt;price&lt;/div&gt;&lt;/div&gt;&lt;div&gt;number_of_shares&lt;/div&gt;&lt;div&gt;volume&lt;/div&gt;&lt;/div&gt;" style="text;html=1;align=left;verticalAlign=middle;resizable=0;points=[];autosize=1;strokeColor=none;fillColor=none;" vertex="1" parent="1">
          <mxGeometry x="1052" y="289" width="120" height="130" as="geometry" />
        </mxCell>
        <mxCell id="hakoycOsbLdt7JPOmpAk-16" value="share_id&lt;div&gt;share_name&lt;br&gt;&lt;div&gt;last_price&lt;/div&gt;&lt;/div&gt;&lt;div&gt;&lt;font style=&quot;font-size: 12px;&quot;&gt;issuer&lt;/font&gt;&lt;/div&gt;" style="text;html=1;align=left;verticalAlign=middle;resizable=0;points=[];autosize=1;strokeColor=none;fillColor=none;" vertex="1" parent="1">
          <mxGeometry x="817" y="210" width="90" height="70" as="geometry" />
        </mxCell>
        <mxCell id="hakoycOsbLdt7JPOmpAk-17" value="Пользователь - родительская сущность" style="shape=table;startSize=30;container=1;collapsible=0;childLayout=tableLayout;strokeColor=default;fontSize=15;align=left;" vertex="1" parent="1">
          <mxGeometry x="312" y="441" width="420" height="110" as="geometry" />
        </mxCell>
        <mxCell id="hakoycOsbLdt7JPOmpAk-18" value="" style="shape=tableRow;horizontal=0;startSize=0;swimlaneHead=0;swimlaneBody=0;strokeColor=inherit;top=0;left=0;bottom=0;right=0;collapsible=0;dropTarget=0;fillColor=none;points=[[0,0.5],[1,0.5]];portConstraint=eastwest;fontSize=16;" vertex="1" parent="hakoycOsbLdt7JPOmpAk-17">
          <mxGeometry y="30" width="420" height="40" as="geometry" />
        </mxCell>
        <mxCell id="hakoycOsbLdt7JPOmpAk-19" value="Атрибут" style="shape=partialRectangle;html=1;whiteSpace=wrap;connectable=0;strokeColor=inherit;overflow=hidden;fillColor=#CCCCCC;top=0;left=0;bottom=0;right=0;pointerEvents=1;fontSize=14;" vertex="1" parent="hakoycOsbLdt7JPOmpAk-18">
          <mxGeometry width="201" height="40" as="geometry">
            <mxRectangle width="201" height="40" as="alternateBounds" />
          </mxGeometry>
        </mxCell>
        <mxCell id="hakoycOsbLdt7JPOmpAk-20" value="Описание" style="shape=partialRectangle;html=1;whiteSpace=wrap;connectable=0;strokeColor=inherit;overflow=hidden;fillColor=#CCCCCC;top=0;left=0;bottom=0;right=0;pointerEvents=1;fontSize=14;" vertex="1" parent="hakoycOsbLdt7JPOmpAk-18">
          <mxGeometry x="201" width="219" height="40" as="geometry">
            <mxRectangle width="219" height="40" as="alternateBounds" />
          </mxGeometry>
        </mxCell>
        <mxCell id="hakoycOsbLdt7JPOmpAk-21" value="" style="shape=tableRow;horizontal=0;startSize=0;swimlaneHead=0;swimlaneBody=0;strokeColor=inherit;top=0;left=0;bottom=0;right=0;collapsible=0;dropTarget=0;fillColor=none;points=[[0,0.5],[1,0.5]];portConstraint=eastwest;fontSize=16;" vertex="1" parent="hakoycOsbLdt7JPOmpAk-17">
          <mxGeometry y="70" width="420" height="40" as="geometry" />
        </mxCell>
        <mxCell id="hakoycOsbLdt7JPOmpAk-22" value="&lt;span style=&quot;font-size: 13px; text-align: left; text-wrap-mode: nowrap;&quot;&gt;user_id&lt;/span&gt;" style="shape=partialRectangle;html=1;whiteSpace=wrap;connectable=0;strokeColor=inherit;overflow=hidden;fillColor=none;top=0;left=0;bottom=0;right=0;pointerEvents=1;fontSize=13;" vertex="1" parent="hakoycOsbLdt7JPOmpAk-21">
          <mxGeometry width="201" height="40" as="geometry">
            <mxRectangle width="201" height="40" as="alternateBounds" />
          </mxGeometry>
        </mxCell>
        <mxCell id="hakoycOsbLdt7JPOmpAk-23" value="Уникальный идентификатор пользователя" style="shape=partialRectangle;html=1;whiteSpace=wrap;connectable=0;strokeColor=inherit;overflow=hidden;fillColor=none;top=0;left=0;bottom=0;right=0;pointerEvents=1;fontSize=13;" vertex="1" parent="hakoycOsbLdt7JPOmpAk-21">
          <mxGeometry x="201" width="219" height="40" as="geometry">
            <mxRectangle width="219" height="40" as="alternateBounds" />
          </mxGeometry>
        </mxCell>
        <mxCell id="hakoycOsbLdt7JPOmpAk-24" value="Список - дочерняя сущность" style="shape=table;startSize=30;container=1;collapsible=0;childLayout=tableLayout;strokeColor=default;fontSize=15;align=left;" vertex="1" parent="1">
          <mxGeometry x="312" y="600" width="420" height="390" as="geometry" />
        </mxCell>
        <mxCell id="hakoycOsbLdt7JPOmpAk-25" value="" style="shape=tableRow;horizontal=0;startSize=0;swimlaneHead=0;swimlaneBody=0;strokeColor=inherit;top=0;left=0;bottom=0;right=0;collapsible=0;dropTarget=0;fillColor=none;points=[[0,0.5],[1,0.5]];portConstraint=eastwest;fontSize=14;" vertex="1" parent="hakoycOsbLdt7JPOmpAk-24">
          <mxGeometry y="30" width="420" height="40" as="geometry" />
        </mxCell>
        <mxCell id="hakoycOsbLdt7JPOmpAk-26" value="Атрибут" style="shape=partialRectangle;html=1;whiteSpace=wrap;connectable=0;strokeColor=inherit;overflow=hidden;fillColor=#CCCCCC;top=0;left=0;bottom=0;right=0;pointerEvents=1;fontSize=16;" vertex="1" parent="hakoycOsbLdt7JPOmpAk-25">
          <mxGeometry width="201" height="40" as="geometry">
            <mxRectangle width="201" height="40" as="alternateBounds" />
          </mxGeometry>
        </mxCell>
        <mxCell id="hakoycOsbLdt7JPOmpAk-27" value="Описание" style="shape=partialRectangle;html=1;whiteSpace=wrap;connectable=0;strokeColor=inherit;overflow=hidden;fillColor=#CCCCCC;top=0;left=0;bottom=0;right=0;pointerEvents=1;fontSize=16;" vertex="1" parent="hakoycOsbLdt7JPOmpAk-25">
          <mxGeometry x="201" width="219" height="40" as="geometry">
            <mxRectangle width="219" height="40" as="alternateBounds" />
          </mxGeometry>
        </mxCell>
        <mxCell id="hakoycOsbLdt7JPOmpAk-28" value="" style="shape=tableRow;horizontal=0;startSize=0;swimlaneHead=0;swimlaneBody=0;strokeColor=inherit;top=0;left=0;bottom=0;right=0;collapsible=0;dropTarget=0;fillColor=none;points=[[0,0.5],[1,0.5]];portConstraint=eastwest;fontSize=16;" vertex="1" parent="hakoycOsbLdt7JPOmpAk-24">
          <mxGeometry y="70" width="420" height="40" as="geometry" />
        </mxCell>
        <mxCell id="hakoycOsbLdt7JPOmpAk-29" value="&lt;span style=&quot;font-size: 13px; text-align: left; text-wrap-mode: nowrap;&quot;&gt;list_id&lt;/span&gt;" style="shape=partialRectangle;html=1;whiteSpace=wrap;connectable=0;strokeColor=inherit;overflow=hidden;fillColor=none;top=0;left=0;bottom=0;right=0;pointerEvents=1;fontSize=13;" vertex="1" parent="hakoycOsbLdt7JPOmpAk-28">
          <mxGeometry width="201" height="40" as="geometry">
            <mxRectangle width="201" height="40" as="alternateBounds" />
          </mxGeometry>
        </mxCell>
        <mxCell id="hakoycOsbLdt7JPOmpAk-30" value="Уникальный идентификатор списка" style="shape=partialRectangle;html=1;whiteSpace=wrap;connectable=0;strokeColor=inherit;overflow=hidden;fillColor=none;top=0;left=0;bottom=0;right=0;pointerEvents=1;fontSize=13;" vertex="1" parent="hakoycOsbLdt7JPOmpAk-28">
          <mxGeometry x="201" width="219" height="40" as="geometry">
            <mxRectangle width="219" height="40" as="alternateBounds" />
          </mxGeometry>
        </mxCell>
        <mxCell id="hakoycOsbLdt7JPOmpAk-31" value="" style="shape=tableRow;horizontal=0;startSize=0;swimlaneHead=0;swimlaneBody=0;strokeColor=inherit;top=0;left=0;bottom=0;right=0;collapsible=0;dropTarget=0;fillColor=none;points=[[0,0.5],[1,0.5]];portConstraint=eastwest;fontSize=14;" vertex="1" parent="hakoycOsbLdt7JPOmpAk-24">
          <mxGeometry y="110" width="420" height="40" as="geometry" />
        </mxCell>
        <mxCell id="hakoycOsbLdt7JPOmpAk-32" value="&lt;span style=&quot;font-size: 13px; text-align: left; text-wrap-mode: nowrap;&quot;&gt;list_name&lt;/span&gt;" style="shape=partialRectangle;html=1;whiteSpace=wrap;connectable=0;strokeColor=inherit;overflow=hidden;fillColor=none;top=0;left=0;bottom=0;right=0;pointerEvents=1;fontSize=13;" vertex="1" parent="hakoycOsbLdt7JPOmpAk-31">
          <mxGeometry width="201" height="40" as="geometry">
            <mxRectangle width="201" height="40" as="alternateBounds" />
          </mxGeometry>
        </mxCell>
        <mxCell id="hakoycOsbLdt7JPOmpAk-33" value="Имя списка" style="shape=partialRectangle;html=1;whiteSpace=wrap;connectable=0;strokeColor=inherit;overflow=hidden;fillColor=none;top=0;left=0;bottom=0;right=0;pointerEvents=1;fontSize=13;" vertex="1" parent="hakoycOsbLdt7JPOmpAk-31">
          <mxGeometry x="201" width="219" height="40" as="geometry">
            <mxRectangle width="219" height="40" as="alternateBounds" />
          </mxGeometry>
        </mxCell>
        <mxCell id="hakoycOsbLdt7JPOmpAk-34" style="shape=tableRow;horizontal=0;startSize=0;swimlaneHead=0;swimlaneBody=0;strokeColor=inherit;top=0;left=0;bottom=0;right=0;collapsible=0;dropTarget=0;fillColor=none;points=[[0,0.5],[1,0.5]];portConstraint=eastwest;fontSize=14;" vertex="1" parent="hakoycOsbLdt7JPOmpAk-24">
          <mxGeometry y="150" width="420" height="40" as="geometry" />
        </mxCell>
        <mxCell id="hakoycOsbLdt7JPOmpAk-35" value="&lt;span style=&quot;font-size: 13px; text-align: left; text-wrap-mode: nowrap;&quot;&gt;share_id&lt;/span&gt;" style="shape=partialRectangle;html=1;whiteSpace=wrap;connectable=0;strokeColor=inherit;overflow=hidden;fillColor=none;top=0;left=0;bottom=0;right=0;pointerEvents=1;fontSize=13;" vertex="1" parent="hakoycOsbLdt7JPOmpAk-34">
          <mxGeometry width="201" height="40" as="geometry">
            <mxRectangle width="201" height="40" as="alternateBounds" />
          </mxGeometry>
        </mxCell>
        <mxCell id="hakoycOsbLdt7JPOmpAk-36" value="&lt;span style=&quot;font-size: 13px;&quot;&gt;Идентификаторы акций, включенных в список&lt;/span&gt;" style="shape=partialRectangle;html=1;whiteSpace=wrap;connectable=0;strokeColor=inherit;overflow=hidden;fillColor=none;top=0;left=0;bottom=0;right=0;pointerEvents=1;fontSize=13;" vertex="1" parent="hakoycOsbLdt7JPOmpAk-34">
          <mxGeometry x="201" width="219" height="40" as="geometry">
            <mxRectangle width="219" height="40" as="alternateBounds" />
          </mxGeometry>
        </mxCell>
        <mxCell id="hakoycOsbLdt7JPOmpAk-37" style="shape=tableRow;horizontal=0;startSize=0;swimlaneHead=0;swimlaneBody=0;strokeColor=inherit;top=0;left=0;bottom=0;right=0;collapsible=0;dropTarget=0;fillColor=none;points=[[0,0.5],[1,0.5]];portConstraint=eastwest;fontSize=14;" vertex="1" parent="hakoycOsbLdt7JPOmpAk-24">
          <mxGeometry y="190" width="420" height="40" as="geometry" />
        </mxCell>
        <mxCell id="hakoycOsbLdt7JPOmpAk-38" value="&lt;span style=&quot;text-align: left; text-wrap-mode: nowrap;&quot;&gt;&lt;font style=&quot;font-size: 13px;&quot;&gt;user_id&lt;/font&gt;&lt;/span&gt;" style="shape=partialRectangle;html=1;whiteSpace=wrap;connectable=0;strokeColor=inherit;overflow=hidden;fillColor=none;top=0;left=0;bottom=0;right=0;pointerEvents=1;fontSize=13;" vertex="1" parent="hakoycOsbLdt7JPOmpAk-37">
          <mxGeometry width="201" height="40" as="geometry">
            <mxRectangle width="201" height="40" as="alternateBounds" />
          </mxGeometry>
        </mxCell>
        <mxCell id="hakoycOsbLdt7JPOmpAk-39" value="&lt;span style=&quot;font-size: 13px;&quot;&gt;Идентификатор пользователя, которому принадлежит список&lt;/span&gt;" style="shape=partialRectangle;html=1;whiteSpace=wrap;connectable=0;strokeColor=inherit;overflow=hidden;fillColor=none;top=0;left=0;bottom=0;right=0;pointerEvents=1;fontSize=13;" vertex="1" parent="hakoycOsbLdt7JPOmpAk-37">
          <mxGeometry x="201" width="219" height="40" as="geometry">
            <mxRectangle width="219" height="40" as="alternateBounds" />
          </mxGeometry>
        </mxCell>
        <mxCell id="hakoycOsbLdt7JPOmpAk-40" style="shape=tableRow;horizontal=0;startSize=0;swimlaneHead=0;swimlaneBody=0;strokeColor=inherit;top=0;left=0;bottom=0;right=0;collapsible=0;dropTarget=0;fillColor=none;points=[[0,0.5],[1,0.5]];portConstraint=eastwest;fontSize=14;" vertex="1" parent="hakoycOsbLdt7JPOmpAk-24">
          <mxGeometry y="230" width="420" height="40" as="geometry" />
        </mxCell>
        <mxCell id="hakoycOsbLdt7JPOmpAk-41" value="&lt;div style=&quot;text-align: left; text-wrap-mode: nowrap;&quot;&gt;&lt;font style=&quot;font-size: 13px;&quot;&gt;creation_date_time&lt;/font&gt;&lt;/div&gt;" style="shape=partialRectangle;html=1;whiteSpace=wrap;connectable=0;strokeColor=inherit;overflow=hidden;fillColor=none;top=0;left=0;bottom=0;right=0;pointerEvents=1;fontSize=13;" vertex="1" parent="hakoycOsbLdt7JPOmpAk-40">
          <mxGeometry width="201" height="40" as="geometry">
            <mxRectangle width="201" height="40" as="alternateBounds" />
          </mxGeometry>
        </mxCell>
        <mxCell id="hakoycOsbLdt7JPOmpAk-42" value="Дата и время создания списка" style="shape=partialRectangle;html=1;whiteSpace=wrap;connectable=0;strokeColor=inherit;overflow=hidden;fillColor=none;top=0;left=0;bottom=0;right=0;pointerEvents=1;fontSize=13;" vertex="1" parent="hakoycOsbLdt7JPOmpAk-40">
          <mxGeometry x="201" width="219" height="40" as="geometry">
            <mxRectangle width="219" height="40" as="alternateBounds" />
          </mxGeometry>
        </mxCell>
        <mxCell id="hakoycOsbLdt7JPOmpAk-43" style="shape=tableRow;horizontal=0;startSize=0;swimlaneHead=0;swimlaneBody=0;strokeColor=inherit;top=0;left=0;bottom=0;right=0;collapsible=0;dropTarget=0;fillColor=none;points=[[0,0.5],[1,0.5]];portConstraint=eastwest;fontSize=14;" vertex="1" parent="hakoycOsbLdt7JPOmpAk-24">
          <mxGeometry y="270" width="420" height="40" as="geometry" />
        </mxCell>
        <mxCell id="hakoycOsbLdt7JPOmpAk-44" value="&lt;span style=&quot;text-align: left; text-wrap-mode: nowrap;&quot;&gt;&lt;font style=&quot;font-size: 13px;&quot;&gt;economy_sector&lt;/font&gt;&lt;/span&gt;" style="shape=partialRectangle;html=1;whiteSpace=wrap;connectable=0;strokeColor=inherit;overflow=hidden;fillColor=none;top=0;left=0;bottom=0;right=0;pointerEvents=1;fontSize=13;" vertex="1" parent="hakoycOsbLdt7JPOmpAk-43">
          <mxGeometry width="201" height="40" as="geometry">
            <mxRectangle width="201" height="40" as="alternateBounds" />
          </mxGeometry>
        </mxCell>
        <mxCell id="hakoycOsbLdt7JPOmpAk-45" value="Сектор экономики отбираемых акций" style="shape=partialRectangle;html=1;whiteSpace=wrap;connectable=0;strokeColor=inherit;overflow=hidden;fillColor=none;top=0;left=0;bottom=0;right=0;pointerEvents=1;fontSize=13;" vertex="1" parent="hakoycOsbLdt7JPOmpAk-43">
          <mxGeometry x="201" width="219" height="40" as="geometry">
            <mxRectangle width="219" height="40" as="alternateBounds" />
          </mxGeometry>
        </mxCell>
        <mxCell id="hakoycOsbLdt7JPOmpAk-46" style="shape=tableRow;horizontal=0;startSize=0;swimlaneHead=0;swimlaneBody=0;strokeColor=inherit;top=0;left=0;bottom=0;right=0;collapsible=0;dropTarget=0;fillColor=none;points=[[0,0.5],[1,0.5]];portConstraint=eastwest;fontSize=14;" vertex="1" parent="hakoycOsbLdt7JPOmpAk-24">
          <mxGeometry y="310" width="420" height="40" as="geometry" />
        </mxCell>
        <mxCell id="hakoycOsbLdt7JPOmpAk-47" value="&lt;span style=&quot;text-align: left; text-wrap-mode: nowrap;&quot;&gt;&lt;font style=&quot;font-size: 13px;&quot;&gt;daily_turnover_from&lt;/font&gt;&lt;/span&gt;" style="shape=partialRectangle;html=1;whiteSpace=wrap;connectable=0;strokeColor=inherit;overflow=hidden;fillColor=none;top=0;left=0;bottom=0;right=0;pointerEvents=1;fontSize=13;" vertex="1" parent="hakoycOsbLdt7JPOmpAk-46">
          <mxGeometry width="201" height="40" as="geometry">
            <mxRectangle width="201" height="40" as="alternateBounds" />
          </mxGeometry>
        </mxCell>
        <mxCell id="hakoycOsbLdt7JPOmpAk-48" value="Начало выбираемого диапазона ежедневного оборота по акциям" style="shape=partialRectangle;html=1;whiteSpace=wrap;connectable=0;strokeColor=inherit;overflow=hidden;fillColor=none;top=0;left=0;bottom=0;right=0;pointerEvents=1;fontSize=13;" vertex="1" parent="hakoycOsbLdt7JPOmpAk-46">
          <mxGeometry x="201" width="219" height="40" as="geometry">
            <mxRectangle width="219" height="40" as="alternateBounds" />
          </mxGeometry>
        </mxCell>
        <mxCell id="hakoycOsbLdt7JPOmpAk-49" style="shape=tableRow;horizontal=0;startSize=0;swimlaneHead=0;swimlaneBody=0;strokeColor=inherit;top=0;left=0;bottom=0;right=0;collapsible=0;dropTarget=0;fillColor=none;points=[[0,0.5],[1,0.5]];portConstraint=eastwest;fontSize=14;" vertex="1" parent="hakoycOsbLdt7JPOmpAk-24">
          <mxGeometry y="350" width="420" height="40" as="geometry" />
        </mxCell>
        <mxCell id="hakoycOsbLdt7JPOmpAk-50" value="&lt;span style=&quot;text-align: left; text-wrap-mode: nowrap;&quot;&gt;&lt;font style=&quot;font-size: 13px;&quot;&gt;daily_turnover_to&lt;/font&gt;&lt;/span&gt;" style="shape=partialRectangle;html=1;whiteSpace=wrap;connectable=0;strokeColor=inherit;overflow=hidden;fillColor=none;top=0;left=0;bottom=0;right=0;pointerEvents=1;fontSize=13;" vertex="1" parent="hakoycOsbLdt7JPOmpAk-49">
          <mxGeometry width="201" height="40" as="geometry">
            <mxRectangle width="201" height="40" as="alternateBounds" />
          </mxGeometry>
        </mxCell>
        <mxCell id="hakoycOsbLdt7JPOmpAk-51" value="Конец выбираемого диапазона ежедневного оборота по акциям" style="shape=partialRectangle;html=1;whiteSpace=wrap;connectable=0;strokeColor=inherit;overflow=hidden;fillColor=none;top=0;left=0;bottom=0;right=0;pointerEvents=1;fontSize=13;" vertex="1" parent="hakoycOsbLdt7JPOmpAk-49">
          <mxGeometry x="201" width="219" height="40" as="geometry">
            <mxRectangle width="219" height="40" as="alternateBounds" />
          </mxGeometry>
        </mxCell>
        <mxCell id="hakoycOsbLdt7JPOmpAk-52" value="Акция - дочерняя сущность" style="shape=table;startSize=30;container=1;collapsible=0;childLayout=tableLayout;strokeColor=default;fontSize=15;align=left;" vertex="1" parent="1">
          <mxGeometry x="790" y="572" width="420" height="230" as="geometry" />
        </mxCell>
        <mxCell id="hakoycOsbLdt7JPOmpAk-53" value="" style="shape=tableRow;horizontal=0;startSize=0;swimlaneHead=0;swimlaneBody=0;strokeColor=inherit;top=0;left=0;bottom=0;right=0;collapsible=0;dropTarget=0;fillColor=none;points=[[0,0.5],[1,0.5]];portConstraint=eastwest;fontSize=14;" vertex="1" parent="hakoycOsbLdt7JPOmpAk-52">
          <mxGeometry y="30" width="420" height="40" as="geometry" />
        </mxCell>
        <mxCell id="hakoycOsbLdt7JPOmpAk-54" value="Атрибут" style="shape=partialRectangle;html=1;whiteSpace=wrap;connectable=0;strokeColor=inherit;overflow=hidden;fillColor=#CCCCCC;top=0;left=0;bottom=0;right=0;pointerEvents=1;fontSize=16;" vertex="1" parent="hakoycOsbLdt7JPOmpAk-53">
          <mxGeometry width="201" height="40" as="geometry">
            <mxRectangle width="201" height="40" as="alternateBounds" />
          </mxGeometry>
        </mxCell>
        <mxCell id="hakoycOsbLdt7JPOmpAk-55" value="Описание" style="shape=partialRectangle;html=1;whiteSpace=wrap;connectable=0;strokeColor=inherit;overflow=hidden;fillColor=#CCCCCC;top=0;left=0;bottom=0;right=0;pointerEvents=1;fontSize=16;" vertex="1" parent="hakoycOsbLdt7JPOmpAk-53">
          <mxGeometry x="201" width="219" height="40" as="geometry">
            <mxRectangle width="219" height="40" as="alternateBounds" />
          </mxGeometry>
        </mxCell>
        <mxCell id="hakoycOsbLdt7JPOmpAk-56" value="" style="shape=tableRow;horizontal=0;startSize=0;swimlaneHead=0;swimlaneBody=0;strokeColor=inherit;top=0;left=0;bottom=0;right=0;collapsible=0;dropTarget=0;fillColor=none;points=[[0,0.5],[1,0.5]];portConstraint=eastwest;fontSize=16;" vertex="1" parent="hakoycOsbLdt7JPOmpAk-52">
          <mxGeometry y="70" width="420" height="40" as="geometry" />
        </mxCell>
        <mxCell id="hakoycOsbLdt7JPOmpAk-57" value="&lt;span style=&quot;font-size: 13px; text-align: left; text-wrap-mode: nowrap;&quot;&gt;share_id&lt;/span&gt;" style="shape=partialRectangle;html=1;whiteSpace=wrap;connectable=0;strokeColor=inherit;overflow=hidden;fillColor=none;top=0;left=0;bottom=0;right=0;pointerEvents=1;fontSize=13;" vertex="1" parent="hakoycOsbLdt7JPOmpAk-56">
          <mxGeometry width="201" height="40" as="geometry">
            <mxRectangle width="201" height="40" as="alternateBounds" />
          </mxGeometry>
        </mxCell>
        <mxCell id="hakoycOsbLdt7JPOmpAk-58" value="Уникальный идентификатор акции" style="shape=partialRectangle;html=1;whiteSpace=wrap;connectable=0;strokeColor=inherit;overflow=hidden;fillColor=none;top=0;left=0;bottom=0;right=0;pointerEvents=1;fontSize=13;" vertex="1" parent="hakoycOsbLdt7JPOmpAk-56">
          <mxGeometry x="201" width="219" height="40" as="geometry">
            <mxRectangle width="219" height="40" as="alternateBounds" />
          </mxGeometry>
        </mxCell>
        <mxCell id="hakoycOsbLdt7JPOmpAk-59" value="" style="shape=tableRow;horizontal=0;startSize=0;swimlaneHead=0;swimlaneBody=0;strokeColor=inherit;top=0;left=0;bottom=0;right=0;collapsible=0;dropTarget=0;fillColor=none;points=[[0,0.5],[1,0.5]];portConstraint=eastwest;fontSize=14;" vertex="1" parent="hakoycOsbLdt7JPOmpAk-52">
          <mxGeometry y="110" width="420" height="40" as="geometry" />
        </mxCell>
        <mxCell id="hakoycOsbLdt7JPOmpAk-60" value="&lt;span style=&quot;font-size: 13px; text-align: left; text-wrap-mode: nowrap;&quot;&gt;share_name&lt;/span&gt;" style="shape=partialRectangle;html=1;whiteSpace=wrap;connectable=0;strokeColor=inherit;overflow=hidden;fillColor=none;top=0;left=0;bottom=0;right=0;pointerEvents=1;fontSize=13;" vertex="1" parent="hakoycOsbLdt7JPOmpAk-59">
          <mxGeometry width="201" height="40" as="geometry">
            <mxRectangle width="201" height="40" as="alternateBounds" />
          </mxGeometry>
        </mxCell>
        <mxCell id="hakoycOsbLdt7JPOmpAk-61" value="Название акции" style="shape=partialRectangle;html=1;whiteSpace=wrap;connectable=0;strokeColor=inherit;overflow=hidden;fillColor=none;top=0;left=0;bottom=0;right=0;pointerEvents=1;fontSize=13;" vertex="1" parent="hakoycOsbLdt7JPOmpAk-59">
          <mxGeometry x="201" width="219" height="40" as="geometry">
            <mxRectangle width="219" height="40" as="alternateBounds" />
          </mxGeometry>
        </mxCell>
        <mxCell id="hakoycOsbLdt7JPOmpAk-62" style="shape=tableRow;horizontal=0;startSize=0;swimlaneHead=0;swimlaneBody=0;strokeColor=inherit;top=0;left=0;bottom=0;right=0;collapsible=0;dropTarget=0;fillColor=none;points=[[0,0.5],[1,0.5]];portConstraint=eastwest;fontSize=14;" vertex="1" parent="hakoycOsbLdt7JPOmpAk-52">
          <mxGeometry y="150" width="420" height="40" as="geometry" />
        </mxCell>
        <mxCell id="hakoycOsbLdt7JPOmpAk-63" value="&lt;span style=&quot;font-size: 13px; text-align: left; text-wrap-mode: nowrap;&quot;&gt;last_price&lt;/span&gt;" style="shape=partialRectangle;html=1;whiteSpace=wrap;connectable=0;strokeColor=inherit;overflow=hidden;fillColor=none;top=0;left=0;bottom=0;right=0;pointerEvents=1;fontSize=13;" vertex="1" parent="hakoycOsbLdt7JPOmpAk-62">
          <mxGeometry width="201" height="40" as="geometry">
            <mxRectangle width="201" height="40" as="alternateBounds" />
          </mxGeometry>
        </mxCell>
        <mxCell id="hakoycOsbLdt7JPOmpAk-64" value="&lt;span style=&quot;font-size: 13px;&quot;&gt;Цена последней сделки с акцией&lt;/span&gt;" style="shape=partialRectangle;html=1;whiteSpace=wrap;connectable=0;strokeColor=inherit;overflow=hidden;fillColor=none;top=0;left=0;bottom=0;right=0;pointerEvents=1;fontSize=13;" vertex="1" parent="hakoycOsbLdt7JPOmpAk-62">
          <mxGeometry x="201" width="219" height="40" as="geometry">
            <mxRectangle width="219" height="40" as="alternateBounds" />
          </mxGeometry>
        </mxCell>
        <mxCell id="hakoycOsbLdt7JPOmpAk-65" style="shape=tableRow;horizontal=0;startSize=0;swimlaneHead=0;swimlaneBody=0;strokeColor=inherit;top=0;left=0;bottom=0;right=0;collapsible=0;dropTarget=0;fillColor=none;points=[[0,0.5],[1,0.5]];portConstraint=eastwest;fontSize=14;" vertex="1" parent="hakoycOsbLdt7JPOmpAk-52">
          <mxGeometry y="190" width="420" height="40" as="geometry" />
        </mxCell>
        <mxCell id="hakoycOsbLdt7JPOmpAk-66" value="&lt;span style=&quot;text-align: left; text-wrap-mode: nowrap;&quot;&gt;&lt;font style=&quot;font-size: 13px;&quot;&gt;issuer&lt;/font&gt;&lt;/span&gt;" style="shape=partialRectangle;html=1;whiteSpace=wrap;connectable=0;strokeColor=inherit;overflow=hidden;fillColor=none;top=0;left=0;bottom=0;right=0;pointerEvents=1;fontSize=13;" vertex="1" parent="hakoycOsbLdt7JPOmpAk-65">
          <mxGeometry width="201" height="40" as="geometry">
            <mxRectangle width="201" height="40" as="alternateBounds" />
          </mxGeometry>
        </mxCell>
        <mxCell id="hakoycOsbLdt7JPOmpAk-67" value="Эмитент акции" style="shape=partialRectangle;html=1;whiteSpace=wrap;connectable=0;strokeColor=inherit;overflow=hidden;fillColor=none;top=0;left=0;bottom=0;right=0;pointerEvents=1;fontSize=13;" vertex="1" parent="hakoycOsbLdt7JPOmpAk-65">
          <mxGeometry x="201" width="219" height="40" as="geometry">
            <mxRectangle width="219" height="40" as="alternateBounds" />
          </mxGeometry>
        </mxCell>
        <mxCell id="hakoycOsbLdt7JPOmpAk-68" value="Сделка - дочерняя сущность" style="shape=table;startSize=30;container=1;collapsible=0;childLayout=tableLayout;strokeColor=default;fontSize=15;align=left;" vertex="1" parent="1">
          <mxGeometry x="790" y="832" width="420" height="390" as="geometry" />
        </mxCell>
        <mxCell id="hakoycOsbLdt7JPOmpAk-69" value="" style="shape=tableRow;horizontal=0;startSize=0;swimlaneHead=0;swimlaneBody=0;strokeColor=inherit;top=0;left=0;bottom=0;right=0;collapsible=0;dropTarget=0;fillColor=none;points=[[0,0.5],[1,0.5]];portConstraint=eastwest;fontSize=14;" vertex="1" parent="hakoycOsbLdt7JPOmpAk-68">
          <mxGeometry y="30" width="420" height="40" as="geometry" />
        </mxCell>
        <mxCell id="hakoycOsbLdt7JPOmpAk-70" value="Атрибут" style="shape=partialRectangle;html=1;whiteSpace=wrap;connectable=0;strokeColor=inherit;overflow=hidden;fillColor=#CCCCCC;top=0;left=0;bottom=0;right=0;pointerEvents=1;fontSize=16;" vertex="1" parent="hakoycOsbLdt7JPOmpAk-69">
          <mxGeometry width="201" height="40" as="geometry">
            <mxRectangle width="201" height="40" as="alternateBounds" />
          </mxGeometry>
        </mxCell>
        <mxCell id="hakoycOsbLdt7JPOmpAk-71" value="Описание" style="shape=partialRectangle;html=1;whiteSpace=wrap;connectable=0;strokeColor=inherit;overflow=hidden;fillColor=#CCCCCC;top=0;left=0;bottom=0;right=0;pointerEvents=1;fontSize=16;" vertex="1" parent="hakoycOsbLdt7JPOmpAk-69">
          <mxGeometry x="201" width="219" height="40" as="geometry">
            <mxRectangle width="219" height="40" as="alternateBounds" />
          </mxGeometry>
        </mxCell>
        <mxCell id="hakoycOsbLdt7JPOmpAk-72" value="" style="shape=tableRow;horizontal=0;startSize=0;swimlaneHead=0;swimlaneBody=0;strokeColor=inherit;top=0;left=0;bottom=0;right=0;collapsible=0;dropTarget=0;fillColor=none;points=[[0,0.5],[1,0.5]];portConstraint=eastwest;fontSize=16;" vertex="1" parent="hakoycOsbLdt7JPOmpAk-68">
          <mxGeometry y="70" width="420" height="40" as="geometry" />
        </mxCell>
        <mxCell id="hakoycOsbLdt7JPOmpAk-73" value="&lt;span style=&quot;font-size: 13px; text-align: left; text-wrap-mode: nowrap;&quot;&gt;transaction_id&lt;/span&gt;" style="shape=partialRectangle;html=1;whiteSpace=wrap;connectable=0;strokeColor=inherit;overflow=hidden;fillColor=none;top=0;left=0;bottom=0;right=0;pointerEvents=1;fontSize=13;" vertex="1" parent="hakoycOsbLdt7JPOmpAk-72">
          <mxGeometry width="201" height="40" as="geometry">
            <mxRectangle width="201" height="40" as="alternateBounds" />
          </mxGeometry>
        </mxCell>
        <mxCell id="hakoycOsbLdt7JPOmpAk-74" value="Уникальный идентификатор сделки" style="shape=partialRectangle;html=1;whiteSpace=wrap;connectable=0;strokeColor=inherit;overflow=hidden;fillColor=none;top=0;left=0;bottom=0;right=0;pointerEvents=1;fontSize=13;" vertex="1" parent="hakoycOsbLdt7JPOmpAk-72">
          <mxGeometry x="201" width="219" height="40" as="geometry">
            <mxRectangle width="219" height="40" as="alternateBounds" />
          </mxGeometry>
        </mxCell>
        <mxCell id="hakoycOsbLdt7JPOmpAk-75" value="" style="shape=tableRow;horizontal=0;startSize=0;swimlaneHead=0;swimlaneBody=0;strokeColor=inherit;top=0;left=0;bottom=0;right=0;collapsible=0;dropTarget=0;fillColor=none;points=[[0,0.5],[1,0.5]];portConstraint=eastwest;fontSize=14;" vertex="1" parent="hakoycOsbLdt7JPOmpAk-68">
          <mxGeometry y="110" width="420" height="40" as="geometry" />
        </mxCell>
        <mxCell id="hakoycOsbLdt7JPOmpAk-76" value="&lt;span style=&quot;font-size: 13px; text-align: left; text-wrap-mode: nowrap;&quot;&gt;date_time&lt;/span&gt;" style="shape=partialRectangle;html=1;whiteSpace=wrap;connectable=0;strokeColor=inherit;overflow=hidden;fillColor=none;top=0;left=0;bottom=0;right=0;pointerEvents=1;fontSize=13;" vertex="1" parent="hakoycOsbLdt7JPOmpAk-75">
          <mxGeometry width="201" height="40" as="geometry">
            <mxRectangle width="201" height="40" as="alternateBounds" />
          </mxGeometry>
        </mxCell>
        <mxCell id="hakoycOsbLdt7JPOmpAk-77" value="Дата и время сделки" style="shape=partialRectangle;html=1;whiteSpace=wrap;connectable=0;strokeColor=inherit;overflow=hidden;fillColor=none;top=0;left=0;bottom=0;right=0;pointerEvents=1;fontSize=13;" vertex="1" parent="hakoycOsbLdt7JPOmpAk-75">
          <mxGeometry x="201" width="219" height="40" as="geometry">
            <mxRectangle width="219" height="40" as="alternateBounds" />
          </mxGeometry>
        </mxCell>
        <mxCell id="hakoycOsbLdt7JPOmpAk-78" style="shape=tableRow;horizontal=0;startSize=0;swimlaneHead=0;swimlaneBody=0;strokeColor=inherit;top=0;left=0;bottom=0;right=0;collapsible=0;dropTarget=0;fillColor=none;points=[[0,0.5],[1,0.5]];portConstraint=eastwest;fontSize=14;" vertex="1" parent="hakoycOsbLdt7JPOmpAk-68">
          <mxGeometry y="150" width="420" height="40" as="geometry" />
        </mxCell>
        <mxCell id="hakoycOsbLdt7JPOmpAk-79" value="&lt;span style=&quot;font-size: 13px; text-align: left; text-wrap-mode: nowrap;&quot;&gt;seller&lt;/span&gt;&lt;span style=&quot;font-size: 13px; text-align: left; text-wrap-mode: nowrap;&quot;&gt;_id&lt;/span&gt;" style="shape=partialRectangle;html=1;whiteSpace=wrap;connectable=0;strokeColor=inherit;overflow=hidden;fillColor=none;top=0;left=0;bottom=0;right=0;pointerEvents=1;fontSize=13;" vertex="1" parent="hakoycOsbLdt7JPOmpAk-78">
          <mxGeometry width="201" height="40" as="geometry">
            <mxRectangle width="201" height="40" as="alternateBounds" />
          </mxGeometry>
        </mxCell>
        <mxCell id="hakoycOsbLdt7JPOmpAk-80" value="&lt;span style=&quot;font-size: 13px;&quot;&gt;Уникальный идентификатор продавца&lt;/span&gt;" style="shape=partialRectangle;html=1;whiteSpace=wrap;connectable=0;strokeColor=inherit;overflow=hidden;fillColor=none;top=0;left=0;bottom=0;right=0;pointerEvents=1;fontSize=13;" vertex="1" parent="hakoycOsbLdt7JPOmpAk-78">
          <mxGeometry x="201" width="219" height="40" as="geometry">
            <mxRectangle width="219" height="40" as="alternateBounds" />
          </mxGeometry>
        </mxCell>
        <mxCell id="hakoycOsbLdt7JPOmpAk-81" style="shape=tableRow;horizontal=0;startSize=0;swimlaneHead=0;swimlaneBody=0;strokeColor=inherit;top=0;left=0;bottom=0;right=0;collapsible=0;dropTarget=0;fillColor=none;points=[[0,0.5],[1,0.5]];portConstraint=eastwest;fontSize=14;" vertex="1" parent="hakoycOsbLdt7JPOmpAk-68">
          <mxGeometry y="190" width="420" height="40" as="geometry" />
        </mxCell>
        <mxCell id="hakoycOsbLdt7JPOmpAk-82" value="&lt;span style=&quot;font-size: 13px; text-align: left; text-wrap-mode: nowrap;&quot;&gt;buyer&lt;/span&gt;&lt;span style=&quot;font-size: 13px; text-align: left; text-wrap-mode: nowrap;&quot;&gt;_id&lt;/span&gt;" style="shape=partialRectangle;html=1;whiteSpace=wrap;connectable=0;strokeColor=inherit;overflow=hidden;fillColor=none;top=0;left=0;bottom=0;right=0;pointerEvents=1;fontSize=13;" vertex="1" parent="hakoycOsbLdt7JPOmpAk-81">
          <mxGeometry width="201" height="40" as="geometry">
            <mxRectangle width="201" height="40" as="alternateBounds" />
          </mxGeometry>
        </mxCell>
        <mxCell id="hakoycOsbLdt7JPOmpAk-83" value="&lt;span style=&quot;font-size: 13px;&quot;&gt;Уникальный идентификатор покупателя&lt;/span&gt;" style="shape=partialRectangle;html=1;whiteSpace=wrap;connectable=0;strokeColor=inherit;overflow=hidden;fillColor=none;top=0;left=0;bottom=0;right=0;pointerEvents=1;fontSize=13;" vertex="1" parent="hakoycOsbLdt7JPOmpAk-81">
          <mxGeometry x="201" width="219" height="40" as="geometry">
            <mxRectangle width="219" height="40" as="alternateBounds" />
          </mxGeometry>
        </mxCell>
        <mxCell id="hakoycOsbLdt7JPOmpAk-84" style="shape=tableRow;horizontal=0;startSize=0;swimlaneHead=0;swimlaneBody=0;strokeColor=inherit;top=0;left=0;bottom=0;right=0;collapsible=0;dropTarget=0;fillColor=none;points=[[0,0.5],[1,0.5]];portConstraint=eastwest;fontSize=14;" vertex="1" parent="hakoycOsbLdt7JPOmpAk-68">
          <mxGeometry y="230" width="420" height="40" as="geometry" />
        </mxCell>
        <mxCell id="hakoycOsbLdt7JPOmpAk-85" value="&lt;span style=&quot;font-size: 12px; text-align: left; text-wrap-mode: nowrap;&quot;&gt;share_id&lt;/span&gt;" style="shape=partialRectangle;html=1;whiteSpace=wrap;connectable=0;strokeColor=inherit;overflow=hidden;fillColor=none;top=0;left=0;bottom=0;right=0;pointerEvents=1;fontSize=12;" vertex="1" parent="hakoycOsbLdt7JPOmpAk-84">
          <mxGeometry width="201" height="40" as="geometry">
            <mxRectangle width="201" height="40" as="alternateBounds" />
          </mxGeometry>
        </mxCell>
        <mxCell id="hakoycOsbLdt7JPOmpAk-86" value="&lt;span style=&quot;font-size: 12px;&quot;&gt;Уникальный идентификатор актива сделки&lt;/span&gt;" style="shape=partialRectangle;html=1;whiteSpace=wrap;connectable=0;strokeColor=inherit;overflow=hidden;fillColor=none;top=0;left=0;bottom=0;right=0;pointerEvents=1;fontSize=12;" vertex="1" parent="hakoycOsbLdt7JPOmpAk-84">
          <mxGeometry x="201" width="219" height="40" as="geometry">
            <mxRectangle width="219" height="40" as="alternateBounds" />
          </mxGeometry>
        </mxCell>
        <mxCell id="hakoycOsbLdt7JPOmpAk-87" style="shape=tableRow;horizontal=0;startSize=0;swimlaneHead=0;swimlaneBody=0;strokeColor=inherit;top=0;left=0;bottom=0;right=0;collapsible=0;dropTarget=0;fillColor=none;points=[[0,0.5],[1,0.5]];portConstraint=eastwest;fontSize=14;" vertex="1" parent="hakoycOsbLdt7JPOmpAk-68">
          <mxGeometry y="270" width="420" height="40" as="geometry" />
        </mxCell>
        <mxCell id="hakoycOsbLdt7JPOmpAk-88" value="&lt;span style=&quot;font-size: 12px; text-align: left; text-wrap-mode: nowrap;&quot;&gt;price&lt;/span&gt;" style="shape=partialRectangle;html=1;whiteSpace=wrap;connectable=0;strokeColor=inherit;overflow=hidden;fillColor=none;top=0;left=0;bottom=0;right=0;pointerEvents=1;fontSize=12;" vertex="1" parent="hakoycOsbLdt7JPOmpAk-87">
          <mxGeometry width="201" height="40" as="geometry">
            <mxRectangle width="201" height="40" as="alternateBounds" />
          </mxGeometry>
        </mxCell>
        <mxCell id="hakoycOsbLdt7JPOmpAk-89" value="Цена сделки" style="shape=partialRectangle;html=1;whiteSpace=wrap;connectable=0;strokeColor=inherit;overflow=hidden;fillColor=none;top=0;left=0;bottom=0;right=0;pointerEvents=1;fontSize=12;" vertex="1" parent="hakoycOsbLdt7JPOmpAk-87">
          <mxGeometry x="201" width="219" height="40" as="geometry">
            <mxRectangle width="219" height="40" as="alternateBounds" />
          </mxGeometry>
        </mxCell>
        <mxCell id="hakoycOsbLdt7JPOmpAk-90" style="shape=tableRow;horizontal=0;startSize=0;swimlaneHead=0;swimlaneBody=0;strokeColor=inherit;top=0;left=0;bottom=0;right=0;collapsible=0;dropTarget=0;fillColor=none;points=[[0,0.5],[1,0.5]];portConstraint=eastwest;fontSize=14;" vertex="1" parent="hakoycOsbLdt7JPOmpAk-68">
          <mxGeometry y="310" width="420" height="40" as="geometry" />
        </mxCell>
        <mxCell id="hakoycOsbLdt7JPOmpAk-91" value="&lt;span style=&quot;font-size: 12px; text-align: left; text-wrap-mode: nowrap;&quot;&gt;number_of_shares&lt;/span&gt;" style="shape=partialRectangle;html=1;whiteSpace=wrap;connectable=0;strokeColor=inherit;overflow=hidden;fillColor=none;top=0;left=0;bottom=0;right=0;pointerEvents=1;fontSize=12;" vertex="1" parent="hakoycOsbLdt7JPOmpAk-90">
          <mxGeometry width="201" height="40" as="geometry">
            <mxRectangle width="201" height="40" as="alternateBounds" />
          </mxGeometry>
        </mxCell>
        <mxCell id="hakoycOsbLdt7JPOmpAk-92" value="Количество акций в сделке" style="shape=partialRectangle;html=1;whiteSpace=wrap;connectable=0;strokeColor=inherit;overflow=hidden;fillColor=none;top=0;left=0;bottom=0;right=0;pointerEvents=1;fontSize=12;" vertex="1" parent="hakoycOsbLdt7JPOmpAk-90">
          <mxGeometry x="201" width="219" height="40" as="geometry">
            <mxRectangle width="219" height="40" as="alternateBounds" />
          </mxGeometry>
        </mxCell>
        <mxCell id="hakoycOsbLdt7JPOmpAk-93" style="shape=tableRow;horizontal=0;startSize=0;swimlaneHead=0;swimlaneBody=0;strokeColor=inherit;top=0;left=0;bottom=0;right=0;collapsible=0;dropTarget=0;fillColor=none;points=[[0,0.5],[1,0.5]];portConstraint=eastwest;fontSize=14;" vertex="1" parent="hakoycOsbLdt7JPOmpAk-68">
          <mxGeometry y="350" width="420" height="40" as="geometry" />
        </mxCell>
        <mxCell id="hakoycOsbLdt7JPOmpAk-94" value="&lt;span style=&quot;font-size: 12px; text-align: left; text-wrap-mode: nowrap;&quot;&gt;volume&lt;/span&gt;" style="shape=partialRectangle;html=1;whiteSpace=wrap;connectable=0;strokeColor=inherit;overflow=hidden;fillColor=none;top=0;left=0;bottom=0;right=0;pointerEvents=1;fontSize=12;" vertex="1" parent="hakoycOsbLdt7JPOmpAk-93">
          <mxGeometry width="201" height="40" as="geometry">
            <mxRectangle width="201" height="40" as="alternateBounds" />
          </mxGeometry>
        </mxCell>
        <mxCell id="hakoycOsbLdt7JPOmpAk-95" value="Денежный объем сделки" style="shape=partialRectangle;html=1;whiteSpace=wrap;connectable=0;strokeColor=inherit;overflow=hidden;fillColor=none;top=0;left=0;bottom=0;right=0;pointerEvents=1;fontSize=12;" vertex="1" parent="hakoycOsbLdt7JPOmpAk-93">
          <mxGeometry x="201" width="219" height="40" as="geometry">
            <mxRectangle width="219" height="40" as="alternateBounds" />
          </mxGeometry>
        </mxCell>
        <mxCell id="hakoycOsbLdt7JPOmpAk-97" style="edgeStyle=orthogonalEdgeStyle;rounded=0;orthogonalLoop=1;jettySize=auto;html=1;exitX=1;exitY=0.5;exitDx=0;exitDy=0;entryX=0.5;entryY=0;entryDx=0;entryDy=0;" edge="1" parent="1" source="hakoycOsbLdt7JPOmpAk-96" target="hakoycOsbLdt7JPOmpAk-11">
          <mxGeometry relative="1" as="geometry">
            <Array as="points">
              <mxPoint x="817" y="70" />
              <mxPoint x="862" y="70" />
            </Array>
          </mxGeometry>
        </mxCell>
        <mxCell id="hakoycOsbLdt7JPOmpAk-98" value="Выпускает" style="edgeLabel;html=1;align=center;verticalAlign=middle;resizable=0;points=[];" vertex="1" connectable="0" parent="hakoycOsbLdt7JPOmpAk-97">
          <mxGeometry x="-0.1" y="3" relative="1" as="geometry">
            <mxPoint x="-3" y="22" as="offset" />
          </mxGeometry>
        </mxCell>
        <mxCell id="hakoycOsbLdt7JPOmpAk-96" value="Эмитент" style="rounded=1;whiteSpace=wrap;html=1;" vertex="1" parent="1">
          <mxGeometry x="697" y="42" width="120" height="60" as="geometry" />
        </mxCell>
        <mxCell id="hakoycOsbLdt7JPOmpAk-99" value="&lt;span style=&quot;text-align: left;&quot;&gt;&lt;font style=&quot;font-size: 12px;&quot;&gt;economy_sector&lt;/font&gt;&lt;/span&gt;" style="text;html=1;align=center;verticalAlign=middle;resizable=0;points=[];autosize=1;strokeColor=none;fillColor=none;" vertex="1" parent="1">
          <mxGeometry x="712" y="102" width="110" height="30" as="geometry" />
        </mxCell>
        <mxCell id="hakoycOsbLdt7JPOmpAk-100" value="Эмитент - родительская сущность" style="shape=table;startSize=30;container=1;collapsible=0;childLayout=tableLayout;strokeColor=default;fontSize=15;align=left;" vertex="1" parent="1">
          <mxGeometry x="790" y="441" width="420" height="110" as="geometry" />
        </mxCell>
        <mxCell id="hakoycOsbLdt7JPOmpAk-101" value="" style="shape=tableRow;horizontal=0;startSize=0;swimlaneHead=0;swimlaneBody=0;strokeColor=inherit;top=0;left=0;bottom=0;right=0;collapsible=0;dropTarget=0;fillColor=none;points=[[0,0.5],[1,0.5]];portConstraint=eastwest;fontSize=16;" vertex="1" parent="hakoycOsbLdt7JPOmpAk-100">
          <mxGeometry y="30" width="420" height="40" as="geometry" />
        </mxCell>
        <mxCell id="hakoycOsbLdt7JPOmpAk-102" value="Атрибут" style="shape=partialRectangle;html=1;whiteSpace=wrap;connectable=0;strokeColor=inherit;overflow=hidden;fillColor=#CCCCCC;top=0;left=0;bottom=0;right=0;pointerEvents=1;fontSize=14;" vertex="1" parent="hakoycOsbLdt7JPOmpAk-101">
          <mxGeometry width="201" height="40" as="geometry">
            <mxRectangle width="201" height="40" as="alternateBounds" />
          </mxGeometry>
        </mxCell>
        <mxCell id="hakoycOsbLdt7JPOmpAk-103" value="Описание" style="shape=partialRectangle;html=1;whiteSpace=wrap;connectable=0;strokeColor=inherit;overflow=hidden;fillColor=#CCCCCC;top=0;left=0;bottom=0;right=0;pointerEvents=1;fontSize=14;" vertex="1" parent="hakoycOsbLdt7JPOmpAk-101">
          <mxGeometry x="201" width="219" height="40" as="geometry">
            <mxRectangle width="219" height="40" as="alternateBounds" />
          </mxGeometry>
        </mxCell>
        <mxCell id="hakoycOsbLdt7JPOmpAk-104" value="" style="shape=tableRow;horizontal=0;startSize=0;swimlaneHead=0;swimlaneBody=0;strokeColor=inherit;top=0;left=0;bottom=0;right=0;collapsible=0;dropTarget=0;fillColor=none;points=[[0,0.5],[1,0.5]];portConstraint=eastwest;fontSize=16;" vertex="1" parent="hakoycOsbLdt7JPOmpAk-100">
          <mxGeometry y="70" width="420" height="40" as="geometry" />
        </mxCell>
        <mxCell id="hakoycOsbLdt7JPOmpAk-105" value="&lt;span style=&quot;text-align: left; text-wrap-mode: nowrap;&quot;&gt;economy_sector&lt;/span&gt;" style="shape=partialRectangle;html=1;whiteSpace=wrap;connectable=0;strokeColor=inherit;overflow=hidden;fillColor=none;top=0;left=0;bottom=0;right=0;pointerEvents=1;fontSize=13;" vertex="1" parent="hakoycOsbLdt7JPOmpAk-104">
          <mxGeometry width="201" height="40" as="geometry">
            <mxRectangle width="201" height="40" as="alternateBounds" />
          </mxGeometry>
        </mxCell>
        <mxCell id="hakoycOsbLdt7JPOmpAk-106" value="Сектор экономики, к которому относится эмитент акции" style="shape=partialRectangle;html=1;whiteSpace=wrap;connectable=0;strokeColor=inherit;overflow=hidden;fillColor=none;top=0;left=0;bottom=0;right=0;pointerEvents=1;fontSize=13;" vertex="1" parent="hakoycOsbLdt7JPOmpAk-104">
          <mxGeometry x="201" width="219" height="40" as="geometry">
            <mxRectangle width="219" height="40" as="alternateBounds" />
          </mxGeometry>
        </mxCell>
      </root>
    </mxGraphModel>
  </diagram>
</mxfile>
